<svg xmlns="http://www.w3.org/2000/svg" width="46" height="46" viewBox="0 0 46 46">
  <path id="icon" d="M277.988,681.932v-5.885l-4.915-.393a18.255,18.255,0,0,0-.753-2.82l4.058-2.8-2.942-5.1-4.456,2.118A18.569,18.569,0,0,0,266.919,665l2.118-4.456-5.1-2.942-2.8,4.058a18.291,18.291,0,0,0-2.82-.752l-.394-4.916h-5.884l-.394,4.916a18.272,18.272,0,0,0-2.82.752l-2.8-4.057-5.1,2.942L243.058,665A18.469,18.469,0,0,0,241,667.06l-4.455-2.118-2.942,5.1,4.057,2.8a18.247,18.247,0,0,0-.751,2.821l-4.916.393v5.884l4.915.394a18.223,18.223,0,0,0,.751,2.82l-4.056,2.8,2.942,5.095L241,690.92a18.549,18.549,0,0,0,2.062,2.062l-2.118,4.455,5.1,2.942,2.8-4.056a18.343,18.343,0,0,0,2.82.752l.394,4.916h5.885l.393-4.916a18.267,18.267,0,0,0,2.82-.752l2.8,4.057,5.1-2.942-2.118-4.456a18.5,18.5,0,0,0,2.061-2.062l4.456,2.118,2.942-5.1-4.057-2.8a18.348,18.348,0,0,0,.752-2.82Zm-23,8.558a11.5,11.5,0,1,1,11.5-11.5A11.5,11.5,0,0,1,254.988,690.49Z" transform="translate(-231.988 -655.99)" fill="#e8663c"/>
</svg>
