<svg width="21" height="21" fill="none" xmlns="http://www.w3.org/2000/svg"><g opacity=".5" clip-path="url(#clip0)" fill="#000"><path d="M12.087 10.295c.227-.318.361-.708.361-1.128A1.95 1.95 0 0010.5 7.219a1.95 1.95 0 00-1.948 1.948c0 .42.134.81.361 1.128a3.283 3.283 0 00-1.694 2.871v.615h6.562v-.615c0-1.234-.685-2.31-1.694-2.87zM9.782 9.167a.719.719 0 111.437.002.719.719 0 01-1.437-.002zm-1.239 3.384a2.054 2.054 0 011.957-1.436c.917 0 1.695.605 1.957 1.436H8.543z"/><path d="M17.763 12.999l.233 1.118-1.508-.87a6.55 6.55 0 00.601-2.747c0-.98-.215-1.91-.6-2.747l1.507-.87L17.763 8l1.204.251.627-3.002-2.914-.959-.384 1.169 1.085.357-1.51.871a6.591 6.591 0 00-4.755-2.748V2.2l.851.761.82-.917L10.5 0 8.213 2.044l.82.917.852-.761v1.74a6.591 6.591 0 00-4.756 2.748l-1.51-.87 1.086-.358-.385-1.169-2.913.959.626 3.002 1.205-.251-.233-1.118 1.507.87a6.55 6.55 0 00-.6 2.747c0 .98.215 1.91.6 2.747l-1.507.87L3.238 13l-1.205-.251-.626 3.002 2.913.959.385-1.169-1.085-.357 1.509-.871a6.591 6.591 0 004.756 2.748v1.74l-.852-.761-.82.917L10.5 21l2.287-2.044-.82-.917-.851.761v-1.74a6.591 6.591 0 004.756-2.748l1.509.87-1.085.358.384 1.169 2.913-.959-.626-3.002-1.204.251zm-6.731 2.833H9.969a5.36 5.36 0 01-3.831-2.224l-.52-.899a5.327 5.327 0 01-.476-2.209c0-.787.17-1.535.477-2.209l.519-.899a5.36 5.36 0 013.83-2.224h1.064a5.36 5.36 0 013.83 2.224l.52.899a5.33 5.33 0 01.477 2.209 5.33 5.33 0 01-.477 2.209l-.52.899a5.36 5.36 0 01-3.83 2.224z"/></g><defs><clipPath id="clip0"><path fill="#fff" d="M0 0h21v21H0z"/></clipPath></defs></svg>