<svg width="18" height="18" fill="none" xmlns="http://www.w3.org/2000/svg"><g clip-path="url(#clip0)" fill="#000"><path d="M0 16.499h10.5v1.5H0v-1.5zm9-1.512a.75.75 0 00-.75-.75h-6a.75.75 0 00-.75.75v.762H9v-.762zm1.204-6.131a5.262 5.262 0 00-.87 1.251l6.174 6.173a.75.75 0 001.06 0l1.061-1.06a.75.75 0 000-1.061l-6.173-6.172c-.458.226-.88.518-1.252.869zM6.492 5.143a6.504 6.504 0 01-1.939 1.243l3.877 3.877a6.61 6.61 0 011.245-1.938 6.51 6.51 0 011.938-1.243L7.737 3.206a6.615 6.615 0 01-1.245 1.937zM9.143.371l-1.06 1.06a.75.75 0 000 1.061l4.241 4.242a.75.75 0 001.06 0l1.061-1.06a.75.75 0 000-1.06L10.203.37a.75.75 0 00-1.06 0zM2.779 6.733l-1.06 1.061a.75.75 0 000 1.06l4.241 4.243a.75.75 0 001.061 0l1.06-1.061a.75.75 0 000-1.06L3.84 6.732a.75.75 0 00-1.06 0z"/></g><defs><clipPath id="clip0"><path fill="#fff" d="M0 0h18v18H0z"/></clipPath></defs></svg>