<svg width="47" height="47" fill="none" xmlns="http://www.w3.org/2000/svg"><mask id="mask0" maskUnits="userSpaceOnUse" x="0" y="0" width="47" height="47"><circle cx="23.5" cy="23.5" r="23.5" fill="#C4C4C4"/></mask><g mask="url(#mask0)"><path d="M42.975 45.99L42 42.09a5.663 5.663 0 00-3.713-4.028l-7.15-2.382c-1.744-.726-2.542-3.534-2.714-4.6a6.757 6.757 0 002.389-4.392c-.03-.294.04-.588.196-.837a.813.813 0 00.558-.488c.467-1.133.761-2.33.87-3.55a.78.78 0 00-.024-.197 2.09 2.09 0 00-.788-1.183v-4.308c0-2.618-.8-3.692-1.641-4.314C29.822 10.55 28.472 8 23.499 8a8.473 8.473 0 00-8.125 8.125v4.308a2.09 2.09 0 00-.788 1.183.78.78 0 00-.024.197 12.17 12.17 0 00.87 3.552.69.69 0 00.488.466c.091.046.262.281.262.857a6.756 6.756 0 002.402 4.4c-.171 1.065-.964 3.87-2.659 4.58l-7.213 2.395A5.663 5.663 0 005 42.088l-.975 3.9A.813.813 0 004.812 47h37.375a.813.813 0 00.788-1.01z" fill="#343434"/></g></svg>