<svg width="21" height="21" fill="none" xmlns="http://www.w3.org/2000/svg"><g opacity=".3" clip-path="url(#clip0)"><path d="M9.92.842a.645.645 0 011.158 0l2.518 5.1c.236.48.694.812 1.223.889l5.628.818a.646.646 0 01.358 1.1l-4.072 3.97a1.625 1.625 0 00-.468 1.439l.961 5.605a.645.645 0 01-.936.68l-5.034-2.646a1.625 1.625 0 00-1.512 0L4.71 20.443a.646.646 0 01-.937-.68l.962-5.605a1.625 1.625 0 00-.468-1.438L.195 8.75a.645.645 0 01.358-1.101L6.18 6.83c.529-.077.986-.41 1.223-.89L9.921.843z" fill="#000"/></g><defs><clipPath id="clip0"><path fill="#fff" d="M0 0h21v21H0z"/></clipPath></defs></svg>