<svg width="18" height="18" fill="none" xmlns="http://www.w3.org/2000/svg"><g opacity=".5" fill="#000"><path d="M14.25 5.4v11.76H18V5.4h-3.75zm1.337 2.165h1.054V8.62h-1.054V7.565zm1.054 5.815h-1.054v-1.054h1.054v1.054zm.015-2.38H15.6V9.945h1.055V11zm-2.399-8.346H18v1.691h-3.743v-1.69zM0 1.668v15.491h3.768V2.74L0 1.669zm1.355 3.52H2.41v1.054H1.355V5.187zm1.056 8.195H1.357V12.33H2.41v1.054zm0-2.38H1.357V9.948H2.41v1.055zm.007-2.38H1.363V7.567h1.055v1.054zm5 5.637h1.055v2.9H7.418v-2.9zm2.109 0h1.055v2.9H9.527v-2.9z"/><path d="M4.92.84v16.32h1.443v-3.955h5.273v3.955h1.558V.84H4.92zm2.497 10.783H6.363V9.38h1.054v2.242zm0-3.296H6.363V6.086h1.054v2.24zm0-3.296H6.363V2.79h1.054v2.24zm2.11 6.592H8.472V9.38h1.055v2.242zm0-3.296H8.472V6.086h1.055v2.24zm0-3.296H8.472V2.79h1.055v2.24zm2.11 6.592H10.58V9.38h1.055v2.242zm0-3.296H10.58V6.086h1.055v2.24zm0-3.296H10.58V2.79h1.055v2.24z"/></g></svg>