<svg width="20" height="20" fill="none" xmlns="http://www.w3.org/2000/svg"><path d="M19.992 14.141v-3.357c0-.5-.143-1-.357-1.428l-2.137-3.642c-.214-.429-.714-.715-1.214-.715H13.07c-.5 0-.928.429-.928.929v7.642h-.715v-10c0-.786-.642-1.428-1.428-1.428H0v12.855h2.143c.357-1.214 1.428-2.142 2.785-2.142 1.357 0 2.5.928 2.785 2.142h5.214c.357-1.214 1.429-2.142 2.786-2.142 1.142 0 2.07.642 2.5 1.57.213.358.565.572.922.572.5 0 .929-.428.857-.857zM13.57 10V6.428h2.857l2.07 3.57H13.57z" fill="#000"/><path d="M15.712 13.571c-1.214 0-2.143.929-2.143 2.143 0 1.214.929 2.143 2.143 2.143 1.214 0 2.143-.929 2.143-2.143 0-1.214-.929-2.143-2.143-2.143zm0 3.143c-.572 0-1-.429-1-1 0-.572.429-1 1-1s1 .428 1 1c0 .571-.429 1-1 1zM5 13.571c-1.215 0-2.143.929-2.143 2.143 0 1.214.928 2.143 2.142 2.143s2.143-.929 2.143-2.143c0-1.214-.929-2.143-2.143-2.143zm0 3.143c-.572 0-1-.429-1-1 0-.572.428-1 1-1 .57 0 1 .428 1 1 0 .571-.43 1-1 1z" fill="#000"/><path d="M5 16.072a.357.357 0 100-.715.357.357 0 000 .715zm10.712 0a.357.357 0 100-.715.357.357 0 000 .715z" fill="#000"/></svg>