<svg width="16" height="16" fill="none" xmlns="http://www.w3.org/2000/svg"><g opacity=".5" clip-path="url(#clip0)" fill="#000"><path d="M14.935 8.207a.469.469 0 010-.414l.597-1.221c.332-.68.07-1.49-.6-1.844l-1.2-.637a.469.469 0 01-.243-.336l-.235-1.338a1.389 1.389 0 00-1.569-1.14l-1.345.19a.469.469 0 01-.394-.128L8.969.395a1.389 1.389 0 00-1.94 0l-.976.944a.47.47 0 01-.394.128l-1.346-.19a1.389 1.389 0 00-1.569 1.14L2.51 3.755a.469.469 0 01-.244.336l-1.2.637a1.389 1.389 0 00-.6 1.844l.597 1.22a.469.469 0 010 .415L.466 9.428a1.39 1.39 0 00.6 1.845l1.2.636c.13.07.218.191.244.336l.234 1.338a1.388 1.388 0 001.57 1.14l1.345-.19a.469.469 0 01.394.128l.977.945a1.39 1.39 0 001.939 0l.977-.945a.47.47 0 01.394-.128l1.345.19a1.389 1.389 0 001.57-1.14l.234-1.338a.47.47 0 01.243-.336l1.2-.636a1.389 1.389 0 00.6-1.845l-.597-1.22zm-8.781-4.36a1.693 1.693 0 010 3.384A1.694 1.694 0 014.462 5.54c0-.933.759-1.692 1.692-1.692zm-.874 7.524a.46.46 0 01-.652 0 .461.461 0 010-.652l6.09-6.09a.461.461 0 11.653.652l-6.09 6.09zm4.565.782a1.694 1.694 0 01-1.692-1.692c0-.933.759-1.692 1.692-1.692.933 0 1.692.759 1.692 1.692 0 .933-.76 1.692-1.692 1.692z"/><path d="M9.845 9.692a.77.77 0 10.001 1.54.77.77 0 00-.001-1.54zM6.154 4.77a.77.77 0 10.001 1.54.77.77 0 00-.001-1.54z"/></g><defs><clipPath id="clip0"><path fill="#fff" d="M0 0h16v16H0z"/></clipPath></defs></svg>