<svg width="140" height="36" fill="none" xmlns="http://www.w3.org/2000/svg"><path d="M17.22 29.69v3.44H0l10.81-14.9H1.26v-3.44H18.1L7.26 29.69h9.96zM21 33.14V14.76h4v18.38h-4zm27.26-8.75c0 .33 0 .68-.05 1.06-.4 4.7-4.65 8-9.6 8A9.74 9.74 0 0128.7 24a9.75 9.75 0 019.9-9.53 10 10 0 018.32 4.42l-3.42 2a6.3 6.3 0 00-4.9-2.79 5.92 5.92 0 000 11.84c2.36 0 4.78-1.53 5.35-3.49H37.1v-3.54h11.11c.03.5.05 1.09.05 1.48zm22.62 8.75h-4v-8.78l-5.62 6.54-5.63-6.54v8.77h-4v-19L61.26 25l9.63-10.86-.01 19zm4.48-7.44V14.79h4V25.7a4.25 4.25 0 008.5 0V14.79h4V25.7c0 4.7-3.22 7.77-8.19 7.77-4.97 0-8.31-3.07-8.31-7.77zm27.44 4.22c2.19 0 3.39-1 3.39-2 0-1.46-2-1.84-4.1-2.21-2.31-.38-7.29-1.23-7.29-5.63s4-5.56 7.29-5.56a11.24 11.24 0 017.26 2.46l-2.21 3a9.22 9.22 0 00-5.2-1.89c-1.16 0-3.17.35-3.17 1.81 0 1.31 2 1.61 3.64 2 3 .63 7.74 1 7.74 5.93 0 3.82-3 5.71-7.31 5.71a12.3 12.3 0 01-8.3-2.87l2.11-3a11.188 11.188 0 006.15 2.25zm33.79-9.35a20.316 20.316 0 003-8.27s-1.62 1.55-1.43.94c.982-3.02 1.189-6.24.6-9.36-.37 10.3-8.93 19-20.3 20.9-.94.16-1.46 1.07-1.85 2a17.347 17.347 0 01-1.4 2.67 7.29 7.29 0 00-.1-1.9 7.203 7.203 0 00-2.54-4.28 9.74 9.74 0 011 2.75 9.525 9.525 0 01-2.29 8.2c-.57.55-1.05 1-1.36 1.21-.31.21-.46.32-.7.46l.41-.06a18.84 18.84 0 005.57-2.06c4.51-2.64 7.65-3.72 11.61-4.16 6.3-.71 11.2-3.67 11.47-9.71-.09.05-2.18 1.44-1.69.67z" fill="#343434"/><path d="M116 25.42c.45-1 .87-1.92 1.85-2a23.891 23.891 0 0010.19-4 7.384 7.384 0 00.88-6.61s-1.24 1.7-1.08 1a16.998 16.998 0 00-.07-7.37s-.83 1.69-.85 1.15A15.873 15.873 0 00124.65 0c2.45 7.47-.8 15.84-7.73 20.92-1.56 1.15-.92 4.51-.92 4.5z" fill="#8B8B8B"/><path opacity=".4" d="M98.24 1.35c.447 0 .843.073 1.19.22.347.14.617.35.81.63.2.28.3.633.3 1.06 0 .48-.13.86-.39 1.14-.26.28-.637.46-1.13.54v.04c.607.067 1.063.263 1.37.59.313.327.47.793.47 1.4 0 .687-.217 1.213-.65 1.58-.427.367-1.023.55-1.79.55-.387 0-.713-.03-.98-.09a3.181 3.181 0 01-.71-.25v2.64h-.88V3.65c0-.54.103-.977.31-1.31.207-.34.49-.59.85-.75a3 3 0 011.23-.24zm-.02.73c-.267 0-.513.047-.74.14-.227.093-.41.257-.55.49-.133.233-.2.56-.2.98v4.28c.233.12.473.22.72.3.253.073.55.11.89.11.573 0 .99-.127 1.25-.38.26-.26.39-.623.39-1.09 0-.527-.16-.91-.48-1.15-.32-.247-.74-.37-1.26-.37h-.53v-.74h.43c.52 0 .9-.123 1.14-.37.24-.247.36-.573.36-.98 0-.413-.13-.72-.39-.92-.253-.2-.597-.3-1.03-.3zm6.099 1.8c-.77 0-1.39.25-1.88.75s-.73 1.12-.73 1.87c0 .76.25 1.39.74 1.88s1.13.74 1.92.74c.97 0 1.76-.44 2.2-1.15l-.58-.34c-.28.51-.85.85-1.61.85-1.07 0-1.86-.64-1.99-1.65h4.39c.01-.13.02-.24.02-.31 0-.71-.23-1.33-.69-1.85-.45-.53-1.05-.79-1.79-.79zm0 .64c.45 0 .85.15 1.19.44.34.29.54.7.61 1.23h-3.73c.13-.99.89-1.67 1.93-1.67zm6.033-.52h-1.44V2.6l-.66.2V4h-1.05v.64h1.05v3.03c0 1.16.7 1.54 2.1 1.33v-.58c-.96.04-1.44.11-1.44-.75V4.64h1.44V4zm5.097.98c-.46-.73-1.13-1.1-2.02-1.1-.71 0-1.32.25-1.83.76-.5.51-.75 1.13-.75 1.86 0 .73.25 1.35.75 1.86.51.51 1.12.76 1.83.76.89 0 1.56-.37 2.02-1.1V9h.66V4h-.66v.98zm-3.37 2.93c-.38-.39-.57-.86-.57-1.41 0-.55.19-1.02.57-1.4.38-.39.85-.58 1.4-.58.55 0 1.02.19 1.4.58.38.38.57.85.57 1.4 0 .55-.19 1.02-.57 1.41-.38.38-.85.57-1.4.57-.55 0-1.02-.19-1.4-.57z" fill="#343434"/></svg>