<svg width="36" height="36" fill="none" xmlns="http://www.w3.org/2000/svg"><g clip-path="url(#clip0)" fill="#000"><path d="M22.96 11.565L26.815 0h-7.71l3.855 11.565zM16.88 0H9.17l4.411 13.233h7.71L16.881 0zm3.36 17.207a2.599 2.599 0 00.309-1.864h-5.112a2.622 2.622 0 00.31 1.867c-4.17 1.015-7.276 4.781-7.276 9.26C8.47 31.725 12.746 36 18 36s9.53-4.275 9.53-9.53c0-4.484-3.114-8.254-7.292-9.263zm1.748 13.075l-1.564 1.137-2.423-1.274-2.424 1.274-1.564-1.137.463-2.698-1.961-1.912.597-1.838 2.71-.394 1.212-2.456h1.933l1.212 2.456 2.71.393.597 1.84-1.96 1.91.462 2.7z"/><path d="M18 23.793l-.777 1.575-1.738.253 1.258 1.226-.297 1.731L18 27.761l1.555.817-.297-1.731 1.258-1.226-1.738-.253L18 23.793z"/></g><defs><clipPath id="clip0"><path fill="#fff" d="M0 0h36v36H0z"/></clipPath></defs></svg>