<svg width="18" height="18" fill="none" xmlns="http://www.w3.org/2000/svg"><g opacity=".4" clip-path="url(#clip0)" fill="#000"><path d="M4.523 12.752l-.032-.002a3.005 3.005 0 01-.722-.134l-1.604 2.777a.527.527 0 00.199.724l1.579.886a.53.53 0 00.715-.197l2.341-4.054H4.523zM13.43 1.007L8.664 3.924v8.4l4.77 2.835a.528.528 0 00.797-.454V1.457a.528.528 0 00-.803-.45zM1.706 9.846V6.303c0-.203.022-.4.063-.591h-.767C.449 5.712 0 6.16 0 6.713v2.723c0 .553.449 1.001 1.002 1.001h.766a2.851 2.851 0 01-.062-.591zm5.904 1.852H4.554c-.99-.06-1.793-.863-1.793-1.853V6.303c0-.99.803-1.793 1.793-1.732H7.61v7.127zm8.94.687a.526.526 0 01-.374-.154l-1.064-1.064a.527.527 0 11.746-.746l1.064 1.064a.527.527 0 01-.373.9zm-1.065-6.328a.526.526 0 01-.373-.9l1.064-1.064a.528.528 0 01.746.746l-1.064 1.063a.526.526 0 01-.373.155zm1.989 2.631H15.97a.527.527 0 110-1.054h1.505a.527.527 0 110 1.054z"/></g><defs><clipPath id="clip0"><path fill="#fff" d="M0 0h18v18H0z"/></clipPath></defs></svg>