<svg xmlns="http://www.w3.org/2000/svg" viewBox="0 0 32 32"><linearGradient id="a" gradientUnits="userSpaceOnUse" x1="3.857" y1="-425.192" x2="29.204" y2="-443.577" gradientTransform="translate(0 450)"><stop offset=".186" stop-color="#fdb24e"/><stop offset="1" stop-color="#c837ac"/></linearGradient><path fill="url(#a)" d="M16 32C7.2 32 0 24.8 0 16S7.2 0 16 0s16 7.2 16 16-7.2 16-16 16z"/><path fill="#FFF" d="M16 20.7c2.5 0 4.7-2.1 4.7-4.7 0-2.5-2.1-4.7-4.7-4.7-2.5 0-4.7 2.1-4.7 4.7s2.2 4.7 4.7 4.7zm0-7.3c1.5 0 2.7 1.2 2.7 2.7s-1.2 2.7-2.7 2.7-2.7-1.2-2.7-2.7 1.2-2.7 2.7-2.7zM20.8 12.4c.6 0 1.1-.5 1.1-1.1 0-.7-.5-1.1-1.1-1.1s-1.1.5-1.1 1.1c0 .6.5 1.1 1.1 1.1z"/><path fill="#FFF" d="M11.5 25.1h9c2.5 0 4.5-2.1 4.5-4.5v-9c0-2.5-2.1-4.5-4.5-4.5h-9C9 7.1 7 9.2 7 11.6v9c0 2.4 2.1 4.5 4.5 4.5zM9 11.6c0-1.4 1.1-2.5 2.5-2.5h9c1.4 0 2.5 1.1 2.5 2.5v9c0 1.4-1.1 2.5-2.5 2.5h-9C10.1 23.1 9 22 9 20.6v-9z"/></svg>