<svg xmlns="http://www.w3.org/2000/svg" viewBox="0 0 32 32"><circle fill="#EE8208" cx="16" cy="16" r="16"/><path fill="#FFF" d="M16 7c-2.5 0-4.5 2-4.5 4.5s2 4.5 4.5 4.5 4.5-2 4.5-4.5S18.5 7 16 7zm0 6.7c-1.2 0-2.3-1-2.3-2.3s1-2.3 2.3-2.3c1.2 0 2.3 1 2.3 2.3s-1.1 2.3-2.3 2.3z"/><path fill="#FFF" d="M22 15.9c-.4-.4-1.2-.4-1.6 0-2.4 2.4-6.3 2.4-8.7 0-.4-.4-1.2-.4-1.6 0-.4.4-.4 1.2 0 1.6 1.4 1.4 3.2 2.2 5 2.4l-3.2 3.2c-.4.4-.4 1.2 0 1.6.4.4 1.2.4 1.6 0l2.6-2.6 2.6 2.6c.2.2.5.3.8.3.3 0 .6-.1.8-.3.4-.4.4-1.2 0-1.6l-3.2-3.2c1.8-.2 3.6-1 5-2.4.3-.5.3-1.2-.1-1.6z"/></svg>