<svg xmlns="http://www.w3.org/2000/svg" viewBox="0 0 32 32"><path fill="#4A76A8" d="M16 32C7.2 32 0 24.8 0 16S7.2 0 16 0s16 7.2 16 16-7.2 16-16 16z"/><path fill="#FFF" d="M24.5 12.8c-.2-.3-.9-.3-.9-.3h-2.7s-.2 0-.3.1c-.2.1-.3.3-.3.3s-.4 1.1-1 2.1c-1.2 2-1.7 2.1-1.9 2-.4-.2-.4-1.1-.4-1.7 0-2 .3-2.8-.6-3-.3-.1-.5-.1-1.3-.1-.9 0-1.8 0-2.2.3-.3.2-.5.5-.4.5.2 0 .6.1.8.4.3.3.3 1.2.3 1.2s.2 2.3-.3 2.6c-.3.3-.9-.2-2-2-.6-.9-.9-2-.9-2s-.1-.2-.3-.3l-.4-.2H7.1s-.4 0-.5.2 0 .4 0 .4 2 4.7 4.3 7.1c2.1 2.1 4.4 2 4.4 2h1.1s.3-.1.5-.3c.2-.2.2-.4.2-.4s0-1.4.6-1.6c.7-.3 1.5 1.4 2.4 2 .7.4 1.2.3 1.2.3h2.4s1.3-.1.6-1c-.1-.1-.3-.8-1.8-2-1.5-1.4-1.3-1.2.5-3.6 1.2-1.7 1.6-2.7 1.5-3z"/></svg>